<svg width="14" height="14" viewBox="0 0 14 14" fill="none" xmlns="http://www.w3.org/2000/svg">
<path d="M6.5 9.84641C6.5 9.57041 6.724 9.34241 7 9.34241C7.276 9.34241 7.5 9.56307 7.5 9.83907V9.84641C7.5 10.1224 7.276 10.3464 7 10.3464C6.724 10.3464 6.5 10.1224 6.5 9.84641Z" fill="#FF754C"/>
<path d="M2.19755 12.612H11.8522C12.6169 12.572 13.2049 11.9206 13.1656 11.156C13.1569 11.0013 13.1236 10.8486 13.0649 10.706L8.21355 2.21529C7.84288 1.54529 6.99955 1.30262 6.32955 1.67395C6.10155 1.79929 5.91355 1.98729 5.78755 2.21529L0.936219 10.706C0.648219 11.4153 0.989552 12.2233 1.69822 12.512C1.84222 12.57 1.99422 12.6033 2.14889 12.612" stroke="#FF754C" stroke-width="1.5" stroke-linecap="round" stroke-linejoin="round"/>
<path d="M6.99349 7.93077V5.86411" stroke="#FF754C" stroke-width="1.5" stroke-linecap="round" stroke-linejoin="round"/>
</svg>
